<mxfile host="app.diagrams.net" modified="2022-09-06T10:37:51.672Z" agent="5.0 (Windows NT 10.0; Win64; x64) AppleWebKit/537.36 (KHTML, like Gecko) Chrome/97.0.4692.99 Safari/537.36" etag="27D2ckbyHfojHV1EgbrN" version="20.2.8" type="github">
  <diagram id="6a731a19-8d31-9384-78a2-239565b7b9f0" name="Page-1">
    <mxGraphModel dx="1422" dy="772" grid="1" gridSize="10" guides="1" tooltips="1" connect="1" arrows="1" fold="1" page="1" pageScale="1" pageWidth="1169" pageHeight="827" background="none" math="0" shadow="0">
      <root>
        <mxCell id="0" />
        <mxCell id="1" parent="0" />
        <mxCell id="Y6n0pH6n9f8ObYDP0il5-60" style="edgeStyle=orthogonalEdgeStyle;rounded=0;orthogonalLoop=1;jettySize=auto;html=1;exitX=0.5;exitY=1;exitDx=0;exitDy=0;entryX=0.5;entryY=0;entryDx=0;entryDy=0;" edge="1" parent="1" source="Y6n0pH6n9f8ObYDP0il5-55" target="Y6n0pH6n9f8ObYDP0il5-56">
          <mxGeometry relative="1" as="geometry" />
        </mxCell>
        <mxCell id="Y6n0pH6n9f8ObYDP0il5-55" value="注册" style="rounded=1;whiteSpace=wrap;html=1;" vertex="1" parent="1">
          <mxGeometry x="360" y="110" width="120" height="60" as="geometry" />
        </mxCell>
        <mxCell id="Y6n0pH6n9f8ObYDP0il5-59" style="edgeStyle=orthogonalEdgeStyle;rounded=0;orthogonalLoop=1;jettySize=auto;html=1;exitX=0.5;exitY=1;exitDx=0;exitDy=0;entryX=0.5;entryY=0;entryDx=0;entryDy=0;" edge="1" parent="1" source="Y6n0pH6n9f8ObYDP0il5-56" target="Y6n0pH6n9f8ObYDP0il5-58">
          <mxGeometry relative="1" as="geometry" />
        </mxCell>
        <mxCell id="Y6n0pH6n9f8ObYDP0il5-56" value="登录" style="rounded=1;whiteSpace=wrap;html=1;" vertex="1" parent="1">
          <mxGeometry x="360" y="230" width="120" height="60" as="geometry" />
        </mxCell>
        <mxCell id="Y6n0pH6n9f8ObYDP0il5-61" style="edgeStyle=orthogonalEdgeStyle;rounded=0;orthogonalLoop=1;jettySize=auto;html=1;" edge="1" parent="1" source="Y6n0pH6n9f8ObYDP0il5-58">
          <mxGeometry relative="1" as="geometry">
            <mxPoint x="420" y="480" as="targetPoint" />
          </mxGeometry>
        </mxCell>
        <mxCell id="Y6n0pH6n9f8ObYDP0il5-58" value="创建客户" style="rhombus;whiteSpace=wrap;html=1;" vertex="1" parent="1">
          <mxGeometry x="360" y="350" width="120" height="70" as="geometry" />
        </mxCell>
        <mxCell id="Y6n0pH6n9f8ObYDP0il5-64" style="edgeStyle=orthogonalEdgeStyle;rounded=0;orthogonalLoop=1;jettySize=auto;html=1;exitX=1;exitY=0.5;exitDx=0;exitDy=0;" edge="1" parent="1" source="Y6n0pH6n9f8ObYDP0il5-63">
          <mxGeometry relative="1" as="geometry">
            <mxPoint x="800" y="834" as="targetPoint" />
          </mxGeometry>
        </mxCell>
        <mxCell id="Y6n0pH6n9f8ObYDP0il5-66" style="edgeStyle=orthogonalEdgeStyle;rounded=0;orthogonalLoop=1;jettySize=auto;html=1;" edge="1" parent="1" source="Y6n0pH6n9f8ObYDP0il5-63">
          <mxGeometry relative="1" as="geometry">
            <mxPoint x="70" y="830" as="targetPoint" />
          </mxGeometry>
        </mxCell>
        <mxCell id="Y6n0pH6n9f8ObYDP0il5-63" value="创建订单" style="rhombus;whiteSpace=wrap;html=1;" vertex="1" parent="1">
          <mxGeometry x="360" y="480" width="120" height="70" as="geometry" />
        </mxCell>
        <mxCell id="Y6n0pH6n9f8ObYDP0il5-65" value="坐商开单" style="text;html=1;strokeColor=none;fillColor=none;align=center;verticalAlign=middle;whiteSpace=wrap;rounded=0;" vertex="1" parent="1">
          <mxGeometry x="620" y="480" width="60" height="30" as="geometry" />
        </mxCell>
        <mxCell id="Y6n0pH6n9f8ObYDP0il5-67" value="极速录单" style="text;html=1;strokeColor=none;fillColor=none;align=center;verticalAlign=middle;whiteSpace=wrap;rounded=0;" vertex="1" parent="1">
          <mxGeometry x="190" y="480" width="60" height="30" as="geometry" />
        </mxCell>
      </root>
    </mxGraphModel>
  </diagram>
</mxfile>
